<svg xmlns="http://www.w3.org/2000/svg" viewBox="0 0 64 64" fill="none" shape-rendering="auto" aria-hidden="true"><!-- Generated by DiceBear (https://www.dicebear.com) --><metadata xmlns:rdf="http://www.w3.org/1999/02/22-rdf-syntax-ns#" xmlns:xsi="http://www.w3.org/2001/XMLSchema-instance" xmlns:dc="http://purl.org/dc/elements/1.1/" xmlns:dcterms="http://purl.org/dc/terms/"><rdf:RDF><rdf:Description><dc:title>Personas by Draftbit</dc:title><dc:creator>Draftbit - draftbit.com</dc:creator><dc:source xsi:type="dcterms:URI">https://personas.draftbit.com/</dc:source><dcterms:license xsi:type="dcterms:URI">https://creativecommons.org/licenses/by/4.0/</dcterms:license><dc:rights>Remix of “Personas by Draftbit” (https://personas.draftbit.com/) by “Draftbit - draftbit.com”, licensed under “CC BY 4.0” (https://creativecommons.org/licenses/by/4.0/)</dc:rights></rdf:Description></rdf:RDF></metadata><defs><g id="eyes-open-a1ad22a9"><path d="M4 4.5a1.5 1.5 0 0 0 3 0 1.5 1.5 0 0 0-3 0m13 0a1.5 1.5 0 0 0 3 0 1.5 1.5 0 0 0-3 0" fill="#1b0640" fill-rule="evenodd" clip-rule="evenodd"/></g><g id="hair-bald-a1ad22a9"><path d="M7.79 1.5a.75.75 0 0 0 0-1.5.75.75 0 0 0 0 1.5M.42 8.27c.37.19.82.04 1-.33a15 15 0 0 1 2-3.06q1.12-1.33 2.63-2.2a.75.75 0 1 0-.77-1.3 12 12 0 0 0-3 2.52Q1.02 5.38.08 7.27a.75.75 0 0 0 .34 1" fill="#ffffff" fill-rule="evenodd" clip-rule="evenodd" transform="translate(11.46 11)" opacity=".2" style="mix-blend-mode:overlay"/></g><g id="clothes-rounded-a1ad22a9"><path d="M16 4.8v.47a5 5 0 0 0 10 0V4.8c7.06 1.52 12.93 6.74 16 13H0c3.07-6.26 8.94-11.48 16-13" fill="#456dff"/></g><g id="mouth-lips-a1ad22a9"><path d="M1 3.54h8s-1 2.5-4 2.5-4-2.5-4-2.5" fill="#dc5c7a"/><path d="M1.39 2.76A2.1 2.1 0 0 1 5 2.54a2.1 2.1 0 0 1 3.61.22l.4.78H1z" fill="#f57b98"/></g><g id="nose-smallRound-a1ad22a9"><path d="M.04.99A.75.75 0 1 1 1.46.5c.23.7.62 1 1.3 1 .66 0 1.05-.3 1.28-1a.75.75 0 0 1 1.42.5c-.43 1.29-1.38 2-2.7 2A2.7 2.7 0 0 1 .03 1" fill="#000000" transform="translate(4.25 1)" opacity=".36" style="mix-blend-mode:overlay"/></g><mask id="personas-a" style="mask-type:alpha"><path d="M23 33.08V39a5 5 0 0 1-10 0v-5.92A14 14 0 0 1 4.58 24H4.5a4.5 4.5 0 0 1-.5-8.97V14a14 14 0 0 1 28 0v1.03a4.5 4.5 0 0 1-.58 8.97A14 14 0 0 1 23 33.08" fill="#ffffff"/></mask><clipPath id="clip-a1ad22a9"><rect width="64" height="64" rx="0" ry="0"/></clipPath></defs><g clip-path="url(#clip-a1ad22a9)"><g transform="translate(14 13)"><path d="M23 33.08V39a5 5 0 0 1-10 0v-5.92A14 14 0 0 1 4.58 24H4.5a4.5 4.5 0 0 1-.5-8.97V14a14 14 0 0 1 28 0v1.03a4.5 4.5 0 0 1-.58 8.97A14 14 0 0 1 23 33.08" fill="#e5a07e"/><g mask="url(#personas-a)"><path d="M14 0a14 14 0 0 1 14 14v6a14 14 0 0 1-28 0v-6A14 14 0 0 1 14 0" fill="#ffffff" transform="translate(4)" opacity=".36" style="mix-blend-mode:overlay"/></g></g><use transform="translate(20 24)" href="#eyes-open-a1ad22a9"/><use transform="translate(9.5 4.5)" href="#hair-bald-a1ad22a9"/><use transform="translate(11 46.2)" href="#clothes-rounded-a1ad22a9"/><use transform="translate(27 37.46)" href="#mouth-lips-a1ad22a9"/><use transform="translate(25 32.25)" href="#nose-smallRound-a1ad22a9"/></g></svg>